<svg xmlns="http://www.w3.org/2000/svg" viewBox="0 0 512 512">
              <path d="m512 75v362c0 41.398438-33.601562 75-75 75h-121l-30-30h-30l-30 30h-151c-41.398438 0-75-33.601562-75-75v-362c0-41.398438 33.601562-75 75-75h362c41.398438 0 75 33.601562 75 75zm0 0" fill="#7984eb"/>
              <path d="m512 75v362c0 41.398438-33.601562 75-75 75h-121l-30-30h-15v-482h166c41.398438 0 75 33.601562 75 75zm0 0" fill="#4661d1"/>
              <path d="m316 180v60h90l-15 90h-75v182h-90v-182h-60v-90h60v-60c0-33.300781 18.300781-62.402344 45-78 13.199219-7.5 28.800781-12 45-12h90v90zm0 0" fill="#ececf1"/>
              <path d="m316 180v60h90l-15 90h-75v182h-45v-410c13.199219-7.5 28.800781-12 45-12h90v90zm0 0" fill="#e2e2e7"/></svg>

<svg xmlns="http://www.w3.org/2000/svg" width="100" height="100" viewBox="0 0 64 64" version="1.1" xml:space="preserve">
              <path d="M39.39 22.51l-2.85 0c0 0-1.2-0.02-1.76 0.62 -0.56 0.65-0.5 1.57-0.5 1.8l0 3.26 4.95 0 -0.64 5.04 -4.34 0 0 12.99 -5.25 0 0-13.02 -4.39 0 0-5.02 4.38 0 0-4.06c0 0-0.18-2.65 1.83-4.66 2.01-2.01 4.72-1.82 8.58-1.49l0 4.53Zm24.61-22.51l-64 0 0 64 64 0 0-64Z"/>
            </svg>